<mxfile host="app.diagrams.net" agent="Mozilla/5.0 (Windows NT 10.0; Win64; x64) AppleWebKit/537.36 (KHTML, like Gecko) Chrome/124.0.0.0 Safari/537.36 SLBrowser/9.0.5.8121 SLBChan/33 SLBVPV/64-bit" version="24.7.7">
  <diagram name="第 1 页" id="pNArF8LXwm-rtK7h72q3">
    <mxGraphModel dx="1290" dy="541" grid="1" gridSize="10" guides="1" tooltips="1" connect="1" arrows="1" fold="1" page="1" pageScale="1" pageWidth="827" pageHeight="1169" math="0" shadow="0">
      <root>
        <mxCell id="0" />
        <mxCell id="1" parent="0" />
        <mxCell id="jjaOtImQW9Kn3S6BhbIs-1" value="组件DB&lt;br&gt;&lt;font style=&quot;font-size: 14px;&quot;&gt;应用数据库&lt;br&gt;TDSQL&lt;/font&gt;" style="shape=cylinder3;whiteSpace=wrap;html=1;boundedLbl=1;backgroundOutline=1;size=15;" vertex="1" parent="1">
          <mxGeometry x="540" y="200" width="80" height="90" as="geometry" />
        </mxCell>
        <mxCell id="jjaOtImQW9Kn3S6BhbIs-6" value="" style="curved=1;endArrow=classic;html=1;rounded=0;exitX=0.5;exitY=1;exitDx=0;exitDy=0;exitPerimeter=0;" edge="1" parent="1" source="jjaOtImQW9Kn3S6BhbIs-1" target="jjaOtImQW9Kn3S6BhbIs-5">
          <mxGeometry width="50" height="50" relative="1" as="geometry">
            <mxPoint x="610" y="420" as="sourcePoint" />
            <mxPoint x="660" y="370" as="targetPoint" />
            <Array as="points">
              <mxPoint x="660" y="420" />
            </Array>
          </mxGeometry>
        </mxCell>
        <mxCell id="jjaOtImQW9Kn3S6BhbIs-7" value="" style="group" vertex="1" connectable="0" parent="1">
          <mxGeometry x="350" y="360" width="130" height="70" as="geometry" />
        </mxCell>
        <mxCell id="jjaOtImQW9Kn3S6BhbIs-3" value="file" style="shape=note;whiteSpace=wrap;html=1;backgroundOutline=1;darkOpacity=0.05;" vertex="1" parent="jjaOtImQW9Kn3S6BhbIs-7">
          <mxGeometry width="50" height="70" as="geometry" />
        </mxCell>
        <mxCell id="jjaOtImQW9Kn3S6BhbIs-4" value="file" style="shape=note;whiteSpace=wrap;html=1;backgroundOutline=1;darkOpacity=0.05;" vertex="1" parent="jjaOtImQW9Kn3S6BhbIs-7">
          <mxGeometry x="39" width="50" height="70" as="geometry" />
        </mxCell>
        <mxCell id="jjaOtImQW9Kn3S6BhbIs-5" value="file" style="shape=note;whiteSpace=wrap;html=1;backgroundOutline=1;darkOpacity=0.05;" vertex="1" parent="jjaOtImQW9Kn3S6BhbIs-7">
          <mxGeometry x="80" width="50" height="70" as="geometry" />
        </mxCell>
        <mxCell id="jjaOtImQW9Kn3S6BhbIs-8" value="&lt;b&gt;卸数&lt;/b&gt;" style="text;html=1;align=center;verticalAlign=middle;resizable=0;points=[];autosize=1;strokeColor=none;fillColor=none;" vertex="1" parent="1">
          <mxGeometry x="545" y="360" width="50" height="30" as="geometry" />
        </mxCell>
        <mxCell id="jjaOtImQW9Kn3S6BhbIs-11" value="&lt;font style=&quot;font-size: 14px;&quot;&gt;数仓&lt;/font&gt;" style="shape=cylinder3;whiteSpace=wrap;html=1;boundedLbl=1;backgroundOutline=1;size=15;" vertex="1" parent="1">
          <mxGeometry x="30" y="210" width="190" height="90" as="geometry" />
        </mxCell>
        <mxCell id="jjaOtImQW9Kn3S6BhbIs-12" value="" style="curved=1;endArrow=classic;html=1;rounded=0;exitX=0;exitY=0.5;exitDx=0;exitDy=0;exitPerimeter=0;entryX=0.5;entryY=1;entryDx=0;entryDy=0;entryPerimeter=0;" edge="1" parent="1" source="jjaOtImQW9Kn3S6BhbIs-3" target="jjaOtImQW9Kn3S6BhbIs-11">
          <mxGeometry width="50" height="50" relative="1" as="geometry">
            <mxPoint x="50" y="470" as="sourcePoint" />
            <mxPoint x="100" y="420" as="targetPoint" />
            <Array as="points">
              <mxPoint x="230" y="395" />
              <mxPoint x="200" y="370" />
              <mxPoint x="150" y="370" />
            </Array>
          </mxGeometry>
        </mxCell>
        <mxCell id="jjaOtImQW9Kn3S6BhbIs-13" value="&lt;font style=&quot;font-size: 14px;&quot;&gt;&lt;b&gt;文件传输工具&lt;/b&gt;&lt;/font&gt;" style="text;html=1;align=center;verticalAlign=middle;resizable=0;points=[];autosize=1;strokeColor=none;fillColor=none;" vertex="1" parent="1">
          <mxGeometry x="170" y="348" width="110" height="30" as="geometry" />
        </mxCell>
        <mxCell id="jjaOtImQW9Kn3S6BhbIs-14" value="&lt;b&gt;&lt;font style=&quot;font-size: 14px;&quot;&gt;大数据平台&lt;/font&gt;&lt;/b&gt;" style="ellipse;whiteSpace=wrap;html=1;" vertex="1" parent="1">
          <mxGeometry x="210" y="38" width="120" height="80" as="geometry" />
        </mxCell>
        <mxCell id="jjaOtImQW9Kn3S6BhbIs-15" value="" style="curved=1;endArrow=classic;html=1;rounded=0;exitX=0.5;exitY=0;exitDx=0;exitDy=0;exitPerimeter=0;entryX=0;entryY=0.5;entryDx=0;entryDy=0;" edge="1" parent="1" source="jjaOtImQW9Kn3S6BhbIs-11" target="jjaOtImQW9Kn3S6BhbIs-14">
          <mxGeometry width="50" height="50" relative="1" as="geometry">
            <mxPoint x="130" y="140" as="sourcePoint" />
            <mxPoint x="180" y="90" as="targetPoint" />
            <Array as="points">
              <mxPoint x="130" y="90" />
            </Array>
          </mxGeometry>
        </mxCell>
        <mxCell id="jjaOtImQW9Kn3S6BhbIs-16" value="" style="curved=1;endArrow=classic;html=1;rounded=0;entryX=0.38;entryY=-0.008;entryDx=0;entryDy=0;entryPerimeter=0;exitX=0.93;exitY=0.613;exitDx=0;exitDy=0;exitPerimeter=0;" edge="1" parent="1" source="jjaOtImQW9Kn3S6BhbIs-20" target="jjaOtImQW9Kn3S6BhbIs-1">
          <mxGeometry width="50" height="50" relative="1" as="geometry">
            <mxPoint x="580" y="60" as="sourcePoint" />
            <mxPoint x="510" y="50" as="targetPoint" />
            <Array as="points">
              <mxPoint x="620" y="130" />
            </Array>
          </mxGeometry>
        </mxCell>
        <mxCell id="jjaOtImQW9Kn3S6BhbIs-17" value="&lt;font style=&quot;font-size: 14px;&quot;&gt;&lt;b&gt;同步&lt;/b&gt;&lt;/font&gt;" style="text;html=1;align=center;verticalAlign=middle;resizable=0;points=[];autosize=1;strokeColor=none;fillColor=none;" vertex="1" parent="1">
          <mxGeometry x="600" y="130" width="50" height="30" as="geometry" />
        </mxCell>
        <mxCell id="jjaOtImQW9Kn3S6BhbIs-18" value="&lt;font style=&quot;font-size: 14px;&quot;&gt;&lt;b&gt;装数&lt;/b&gt;&lt;/font&gt;" style="text;html=1;align=center;verticalAlign=middle;resizable=0;points=[];autosize=1;strokeColor=none;fillColor=none;" vertex="1" parent="1">
          <mxGeometry x="90" y="130" width="50" height="30" as="geometry" />
        </mxCell>
        <mxCell id="jjaOtImQW9Kn3S6BhbIs-20" value="Hadoop计算区&lt;br&gt;数据批处理" style="ellipse;shape=cloud;whiteSpace=wrap;html=1;" vertex="1" parent="1">
          <mxGeometry x="460" y="20" width="120" height="80" as="geometry" />
        </mxCell>
        <mxCell id="jjaOtImQW9Kn3S6BhbIs-22" value="" style="curved=1;endArrow=classic;html=1;rounded=0;exitX=1;exitY=0.5;exitDx=0;exitDy=0;entryX=0.097;entryY=0.603;entryDx=0;entryDy=0;entryPerimeter=0;" edge="1" parent="1" source="jjaOtImQW9Kn3S6BhbIs-14" target="jjaOtImQW9Kn3S6BhbIs-20">
          <mxGeometry width="50" height="50" relative="1" as="geometry">
            <mxPoint x="390" y="150" as="sourcePoint" />
            <mxPoint x="440" y="100" as="targetPoint" />
            <Array as="points">
              <mxPoint x="370" y="80" />
              <mxPoint x="400" y="60" />
            </Array>
          </mxGeometry>
        </mxCell>
        <mxCell id="jjaOtImQW9Kn3S6BhbIs-23" value="&lt;b&gt;授权&lt;/b&gt;" style="text;html=1;align=center;verticalAlign=middle;resizable=0;points=[];autosize=1;strokeColor=none;fillColor=none;" vertex="1" parent="1">
          <mxGeometry x="380" y="30" width="50" height="30" as="geometry" />
        </mxCell>
      </root>
    </mxGraphModel>
  </diagram>
</mxfile>
